<svg width="45" height="60" viewBox="0 0 45 60" fill="none" xmlns="http://www.w3.org/2000/svg">
<g clip-path="url(#clip0_42_1429)">
<path d="M19.5603 54.7595C20.9926 56.2 23.3186 56.2 24.7509 54.7595L43.0842 36.322C44.5165 34.8816 44.5165 32.5423 43.0842 31.1019C41.6519 29.6615 39.3259 29.6615 37.8936 31.1019L25.8165 43.2591L25.8165 7.90522C25.8165 5.86557 24.178 4.21772 22.1499 4.21772C20.1217 4.21772 18.4832 5.86557 18.4832 7.90522L18.4832 43.2591L6.40611 31.1134C4.97381 29.673 2.64777 29.673 1.21548 31.1134C-0.216812 32.5539 -0.216812 34.8931 1.21548 36.3335L19.5488 54.771L19.5603 54.7595Z" fill="#65688E"/>
</g>
<defs>
<clipPath id="clip0_42_1429">
<rect width="44" height="59" fill="white" transform="translate(0.149902 0.527344)"/>
</clipPath>
</defs>
</svg>
