<svg width="222" height="241" viewBox="0 0 222 241" fill="none" xmlns="http://www.w3.org/2000/svg">
<g id="undraw_woman_ffrd 1">
<path id="Vector" d="M181.733 113.549C188.604 117.968 195.04 123.886 201.068 131.185V142.346C198.126 141.347 186.898 137.206 182.465 130.658C177.342 123.09 176.43 111.602 180.698 108.726C181.809 107.979 183.159 107.886 184.64 108.295C189.312 111.647 193.779 115.712 198.047 120.448C199.559 122.766 200.495 125.718 201.068 128.701V128.843C195.547 121.175 189.056 116.201 181.733 113.549Z" fill="#3C2F66"/>
<path id="Vector_2" d="M181.388 45.0003C188.259 49.4197 194.694 55.3376 200.723 62.6368V65.1858C200.146 64.9895 199.255 64.676 198.157 64.2454C193.227 58.4137 187.606 54.4868 181.388 52.234C185.738 55.031 189.916 58.4309 193.925 62.4025C189.685 60.3668 184.727 57.3493 182.12 53.4982C181.844 53.0917 181.582 52.6818 181.333 52.2684C176.948 45.0071 176.658 37.0431 180.698 34.3219C184.965 31.4456 192.447 35.5206 197.57 43.085C200.533 47.4632 201.365 54.256 201.534 59.199C201.261 59.5573 200.992 59.9224 200.723 60.2944C195.202 52.6267 188.711 47.6526 181.388 45.0003Z" fill="#3C2F66"/>
<path id="Vector_3" d="M220.499 85.7177V85.7212C220.009 87.0749 219.394 88.4424 218.662 89.7893C217.575 91.7941 215.904 93.6542 214.012 95.3179C211.985 97.1023 209.699 98.6592 207.597 99.9234C204.662 101.691 202.083 102.889 201.068 103.344V102.259C206.899 95.3352 213.1 89.6929 219.712 85.4422C212.689 87.9843 206.437 92.669 201.068 99.8097V95.0252C206.899 88.1014 213.1 82.4591 219.712 78.2085C212.689 80.7506 206.437 85.4353 201.068 92.576V87.7914C206.823 80.9607 212.934 75.377 219.449 71.147C222.502 73.5961 222.767 79.5036 220.499 85.7177Z" fill="#3C2F66"/>
<path id="Vector_4" opacity="0.6" d="M41.5 75C57.7924 75 71 61.7924 71 45.5C71 29.2076 57.7924 16 41.5 16C25.2076 16 12 29.2076 12 45.5C12 61.7924 25.2076 75 41.5 75Z" fill="#3C2F66"/>
<path id="uuid-9ac3c440-2c29-483e-b5ea-f157a67fda2d-179" d="M205.037 163.934C209.21 167.441 210.778 172.431 208.541 175.08C206.304 177.729 201.108 177.033 196.935 173.525C195.249 172.146 193.918 170.384 193.053 168.387L175.562 153.306L182.831 145.268L199.302 160.988C201.422 161.499 203.389 162.509 205.037 163.934Z" fill="#FCB4B4"/>
<path id="Vector_5" d="M190.913 152.776L169.531 125.383L149.279 88.4027L148.754 139.69L179.111 164.566L190.913 152.776Z" fill="#2F2E41"/>
<path id="Vector_6" d="M97.9001 77.3746L102.798 55.1548L119.171 55.9405L123.373 72.0597L97.9001 77.3746Z" fill="#FCB4B4"/>
<path id="Vector_7" opacity="0.1" d="M97.9001 77.3746L102.798 55.1548L119.171 55.9405L123.373 72.0597L97.9001 77.3746Z" fill="black"/>
<path id="Vector_8" d="M110.579 61.1169C120.702 61.1169 128.908 52.9295 128.908 42.8299C128.908 32.7302 120.702 24.5428 110.579 24.5428C100.456 24.5428 92.25 32.7302 92.25 42.8299C92.25 52.9295 100.456 61.1169 110.579 61.1169Z" fill="#FCB4B4"/>
<path id="Vector_9" d="M102.381 49.892C102.381 49.892 100.532 49.8741 96.6853 49.1605C92.8391 48.4469 99.517 57.4137 99.517 57.4137C81.4172 49.8734 87.2091 30.7475 87.2091 30.7475C68.8398 27.2426 76.5351 10.9503 76.5351 10.9503C76.5351 10.9503 82.5902 -0.707896 101.204 0.0339651C119.818 0.775826 111.025 19.0921 111.025 19.0921C123.152 19.1151 124.516 30.0196 124.516 30.0196C124.516 30.0196 120.145 30.5641 112.199 32.5759C104.254 34.5877 102.381 49.892 102.381 49.892Z" fill="#2F2E41"/>
<path id="Vector_10" d="M101.654 70.3767L100.826 68.7683C100.826 68.7683 86.0968 70.4716 83.68 72.7201C81.2631 74.9686 75.739 84.958 75.739 84.958L87.8231 95.292L101.654 70.3767Z" fill="#FFB6B6"/>
<path id="Vector_11" d="M119.932 69.9861C119.932 69.9861 130.98 67.0459 137.195 73.2463C143.41 79.4466 150.66 90.8139 150.66 90.8139L150.315 99.77L133.052 91.4676L119.932 69.9861Z" fill="#FFB6B6"/>
<path id="Vector_12" d="M122.749 68.7683C122.749 68.7683 137.195 63.6013 146.517 74.6241C155.839 85.647 158.601 120.438 158.601 120.438C158.601 120.438 179.662 184.852 174.483 185.541C169.304 186.23 137.699 188.134 137.699 188.134L126.837 118.027L122.004 68.7683L122.749 68.7683Z" fill="#2F2E41"/>
<path id="Vector_13" d="M89.5495 130.772L86.0969 143.172L133.052 146.617C133.052 146.617 131.326 136.251 133.052 132.478L89.5495 130.772Z" fill="#FCB4B4"/>
<path id="Vector_14" d="M116.134 211.376L118.206 241L144.28 240.311L143.41 210.343L116.134 211.376Z" fill="#FCB4B4"/>
<path id="Vector_15" d="M75.4544 208.446L67.7981 240.656L95.0938 240.471L102.048 214.144L75.4544 208.446Z" fill="#FCB4B4"/>
<path id="Vector_16" d="M122.004 68.7683H100.826L83.6799 91.5029L87.4778 138.005C87.4778 138.005 96.1092 135.594 108.193 135.594H134.088C134.088 135.594 130.29 123.538 135.123 118.715C139.957 113.893 136.504 91.5029 136.504 91.5029L122.004 68.7683Z" fill="#3C2F66"/>
<path id="Vector_17" d="M84.3706 139.383L65.0361 209.309C65.0361 209.309 93.5062 220.723 110.69 217.427C127.873 214.132 151.351 213.098 151.351 213.098L134.778 142.139L84.3706 139.383Z" fill="#2F2E41"/>
<path id="uuid-73c6c48b-3ad6-4bf4-ae9b-2aead64e96c3-180" d="M129.08 164.967C133.253 168.474 134.821 173.465 132.584 176.113C130.347 178.762 125.151 178.066 120.978 174.558C119.291 173.179 117.961 171.418 117.096 169.421L99.6055 154.34L106.874 146.301L123.345 162.022C125.465 162.533 127.432 163.543 129.08 164.967Z" fill="#FCB4B4"/>
<path id="Vector_18" d="M118.409 152.776L97.027 125.383L76.7749 88.4027L76.2498 139.69L106.607 164.566L118.409 152.776Z" fill="#2F2E41"/>
<path id="Vector_19" d="M102.27 68.7683C102.27 68.7683 87.8232 63.6013 78.5013 74.6241C69.1793 85.647 66.4172 120.438 66.4172 120.438C66.4172 120.438 45.3564 184.852 50.5353 185.541C55.7142 186.23 87.3191 188.134 87.3191 188.134L98.181 118.027L103.015 68.7683L102.27 68.7683Z" fill="#2F2E41"/>
<path id="Vector_20" d="M201.413 55.6786H200.723V175.552H201.413V55.6786Z" fill="#3F3D56"/>
<path id="Vector_21" d="M9.44945 178.652C16.3201 183.072 22.7557 188.989 28.7839 196.289V207.449C25.8423 206.45 14.6145 202.31 10.1814 195.762C5.05777 188.194 4.14628 176.706 8.41367 173.83C9.52539 173.082 10.8754 172.989 12.3565 173.399C17.0279 176.751 21.4955 180.815 25.7629 185.552C27.2751 187.87 28.2108 190.822 28.7839 193.805V193.946C23.2632 186.279 16.7724 181.304 9.44945 178.652Z" fill="#3C2F66"/>
<path id="Vector_22" d="M9.10426 110.104C15.9749 114.523 22.4105 120.441 28.4387 127.74V130.289C27.8622 130.093 26.9714 129.78 25.8735 129.349C20.9432 123.517 15.3224 119.59 9.10426 117.338C13.4545 120.135 17.6321 123.534 21.6406 127.506C17.4008 125.47 12.4429 122.453 9.83621 118.602C9.56 118.195 9.2976 117.785 9.04903 117.372C4.66424 110.111 4.37421 102.147 8.41374 99.4255C12.6811 96.5492 20.1629 100.624 25.2865 108.189C28.2488 112.567 29.0809 119.36 29.2501 124.303C28.9774 124.661 28.708 125.026 28.4387 125.398C22.9181 117.73 16.4272 112.756 9.10426 110.104Z" fill="#3C2F66"/>
<path id="Vector_23" d="M48.2151 150.821V150.825C47.7248 152.179 47.1103 153.546 46.3783 154.893C45.2908 156.898 43.6197 158.758 41.7277 160.422C39.701 162.206 37.4154 163.763 35.3127 165.027C32.378 166.794 29.799 167.993 28.7839 168.448V167.362C34.6154 160.439 40.8162 154.796 47.4279 150.546C40.4053 153.088 34.1527 157.773 28.7839 164.913V160.129C34.6154 153.205 40.8162 147.563 47.4279 143.312C40.4053 145.854 34.1527 150.539 28.7839 157.68V152.895C34.5394 146.064 40.6505 140.481 47.1655 136.251C50.2176 138.7 50.4834 144.607 48.2151 150.821Z" fill="#3C2F66"/>
<path id="Vector_24" d="M29.1292 120.782H28.4387V240.655H29.1292V120.782Z" fill="#3F3D56"/>
</g>
</svg>
