<svg width="498" height="434" viewBox="0 0 498 434" fill="none" xmlns="http://www.w3.org/2000/svg">
<ellipse cx="324.75" cy="369" rx="324.75" ry="64.5" fill="#5B5A70"/>
<g clip-path="url(#clip0_55_1143)">
<path d="M298.673 343.766C298.673 343.766 305.583 332.451 314.456 339.141C323.329 345.831 339.761 357.119 339.761 357.119C339.761 357.119 343.126 364.339 334.416 361.627C325.705 358.915 297.269 354.551 297.269 354.551L298.673 343.766Z" fill="#FEB8B8"/>
<path d="M105.536 271.907C107.738 254.234 118.713 236.822 135.603 231.07C128.942 249.261 128.943 269.216 135.607 287.405C138.202 294.41 141.819 301.933 139.378 308.993C137.859 313.386 134.144 316.748 129.99 318.849C125.837 320.951 121.227 321.953 116.675 322.934L115.779 323.674C108.553 307.39 103.333 289.58 105.536 271.907Z" fill="#F0F0F0" fill-opacity="0.5"/>
<path d="M135.77 231.405C125.934 242.402 119.821 256.213 118.299 270.875C117.915 274.026 118.031 277.217 118.643 280.332C119.338 283.347 120.828 286.121 122.96 288.366C124.906 290.5 127.144 292.457 128.536 295.025C129.229 296.351 129.634 297.807 129.724 299.299C129.813 300.792 129.585 302.286 129.056 303.684C127.826 307.202 125.404 310.07 122.937 312.792C120.198 315.815 117.305 318.911 116.141 322.918C116 323.403 115.253 323.157 115.394 322.672C117.419 315.7 124.201 311.74 127.435 305.461C128.944 302.531 129.578 299.129 128.163 296.037C126.926 293.332 124.62 291.312 122.631 289.168C120.519 287.008 118.969 284.365 118.116 281.469C117.347 278.396 117.108 275.215 117.409 272.061C117.973 264.951 119.653 257.973 122.389 251.384C125.469 243.846 129.819 236.89 135.25 230.816C135.586 230.44 136.104 231.031 135.77 231.405Z" fill="white" fill-opacity="0.1"/>
<path d="M118.511 266.125C116.08 265.536 113.939 264.105 112.469 262.086C110.998 260.066 110.295 257.592 110.485 255.103C110.525 254.599 111.311 254.638 111.27 255.142C111.09 257.459 111.745 259.765 113.118 261.642C114.491 263.519 116.491 264.845 118.757 265.38C119.25 265.497 119 266.241 118.511 266.125Z" fill="white" fill-opacity="0.1"/>
<path d="M121.831 287.414C126.221 284.799 129.461 280.628 130.906 275.734C131.049 275.249 131.796 275.496 131.653 275.98C130.14 281.07 126.759 285.404 122.185 288.115C121.749 288.374 121.397 287.671 121.831 287.414Z" fill="white" fill-opacity="0.1"/>
<path d="M126.199 244.59C127.091 245.013 128.076 245.209 129.063 245.159C130.05 245.109 131.009 244.815 131.855 244.303C132.287 244.04 132.638 244.742 132.208 245.004C131.272 245.565 130.212 245.888 129.121 245.946C128.031 246.004 126.943 245.794 125.952 245.335C125.855 245.3 125.775 245.229 125.729 245.137C125.682 245.045 125.673 244.938 125.702 244.839C125.735 244.741 125.806 244.659 125.899 244.613C125.992 244.566 126.1 244.558 126.199 244.59Z" fill="white" fill-opacity="0.1"/>
<path d="M187.084 262.636C186.818 262.808 186.553 262.98 186.287 263.159C182.73 265.493 179.369 268.112 176.237 270.989C175.991 271.208 175.746 271.433 175.507 271.658C168.035 278.671 161.933 287.006 157.511 296.242C155.754 299.918 154.281 303.723 153.103 307.623C151.476 313.008 150.142 318.977 146.923 323.382C146.592 323.845 146.233 324.288 145.847 324.707H116.752C116.686 324.674 116.62 324.647 116.553 324.614L115.392 324.667C115.438 324.462 115.491 324.25 115.538 324.044C115.564 323.925 115.597 323.806 115.624 323.687C115.644 323.607 115.664 323.528 115.677 323.455C115.684 323.428 115.69 323.402 115.697 323.382C115.71 323.309 115.73 323.243 115.744 323.177C116.036 321.991 116.337 320.805 116.646 319.619C116.646 319.613 116.646 319.613 116.653 319.606C119.036 310.577 122.196 301.667 126.61 293.519C126.743 293.274 126.875 293.022 127.022 292.777C129.032 289.115 131.339 285.624 133.919 282.337C135.337 280.542 136.846 278.819 138.439 277.177C142.564 272.939 147.331 269.376 152.565 266.617C163 261.119 175.082 259.012 186.234 262.371C186.519 262.457 186.798 262.543 187.084 262.636Z" fill="#F0F0F0" fill-opacity="0.5"/>
<path d="M187.018 263.005C172.53 265.876 159.317 273.23 149.255 284.023C147.048 286.308 145.215 288.926 143.825 291.78C142.561 294.604 142.077 297.715 142.425 300.789C142.691 303.661 143.297 306.569 142.859 309.456C142.613 310.931 142.057 312.336 141.229 313.582C140.4 314.827 139.317 315.883 138.05 316.681C134.946 318.752 131.281 319.586 127.669 320.277C123.659 321.045 119.481 321.779 116.134 324.279C115.729 324.582 115.281 323.936 115.686 323.634C121.51 319.284 129.313 320.197 135.684 317.127C138.657 315.694 141.215 313.358 141.951 310.039C142.595 307.136 141.973 304.137 141.678 301.231C141.295 298.238 141.652 295.196 142.718 292.372C143.958 289.456 145.687 286.772 147.829 284.435C152.569 279.096 158.121 274.534 164.28 270.917C171.287 266.749 178.957 263.808 186.958 262.222C187.453 262.124 187.51 262.907 187.018 263.005Z" fill="white" fill-opacity="0.1"/>
<path d="M152.29 280.357C150.705 278.427 149.859 275.997 149.903 273.501C149.947 271.006 150.879 268.607 152.532 266.734C152.867 266.356 153.472 266.859 153.135 267.237C151.593 268.979 150.726 271.213 150.689 273.537C150.653 275.861 151.45 278.121 152.937 279.91C153.259 280.299 152.611 280.744 152.29 280.357Z" fill="white" fill-opacity="0.1"/>
<path d="M142.097 299.35C147.18 299.899 152.284 298.516 156.39 295.477C156.797 295.175 157.244 295.821 156.838 296.122C152.559 299.277 147.245 300.705 141.957 300.122C141.453 300.066 141.596 299.294 142.097 299.35Z" fill="white" fill-opacity="0.1"/>
<path d="M171.421 267.781C171.879 268.656 172.546 269.403 173.365 269.957C174.183 270.51 175.127 270.851 176.11 270.951C176.614 271 176.471 271.772 175.969 271.723C174.883 271.608 173.842 271.23 172.937 270.62C172.031 270.011 171.289 269.19 170.775 268.228C170.719 268.142 170.698 268.037 170.716 267.936C170.734 267.834 170.791 267.744 170.874 267.682C170.96 267.624 171.066 267.601 171.168 267.62C171.27 267.638 171.361 267.696 171.421 267.781Z" fill="white" fill-opacity="0.1"/>
<path d="M340.189 389.037C341.042 382.188 345.296 375.44 351.841 373.211C349.26 380.261 349.26 387.994 351.843 395.044C352.849 397.759 354.251 400.674 353.304 403.41C352.627 405.102 351.324 406.469 349.666 407.23C348.021 407.975 346.286 408.507 344.506 408.813L344.158 409.1C341.358 402.789 339.335 395.886 340.189 389.037Z" fill="#F0F0F0" fill-opacity="0.5"/>
<path d="M351.906 373.34C348.094 377.602 345.725 382.955 345.135 388.637C344.986 389.858 345.031 391.095 345.269 392.302C345.538 393.47 346.115 394.546 346.942 395.416C347.764 396.186 348.49 397.052 349.103 397.997C349.371 398.51 349.528 399.075 349.563 399.653C349.597 400.231 349.509 400.81 349.304 401.352C348.758 402.675 347.952 403.876 346.933 404.882C345.871 406.054 344.75 407.253 344.299 408.806C344.244 408.995 343.955 408.899 344.009 408.711C344.794 406.009 347.422 404.474 348.676 402.041C348.999 401.494 349.192 400.88 349.241 400.247C349.29 399.614 349.193 398.978 348.958 398.388C348.39 397.393 347.666 396.495 346.814 395.727C345.995 394.889 345.395 393.865 345.064 392.743C344.766 391.552 344.674 390.319 344.79 389.097C345.009 386.341 345.66 383.637 346.72 381.083C347.914 378.162 349.6 375.466 351.704 373.112C351.835 372.966 352.036 373.196 351.906 373.34Z" fill="white" fill-opacity="0.1"/>
<path d="M345.217 386.797C344.275 386.568 343.445 386.013 342.876 385.231C342.306 384.448 342.033 383.489 342.107 382.525C342.122 382.33 342.427 382.345 342.411 382.54C342.341 383.438 342.595 384.331 343.127 385.059C343.659 385.787 344.434 386.3 345.313 386.508C345.504 386.553 345.407 386.842 345.217 386.797Z" fill="white" fill-opacity="0.1"/>
<path d="M346.504 395.047C348.205 394.033 349.461 392.417 350.021 390.52C350.077 390.332 350.366 390.428 350.311 390.616C349.724 392.588 348.414 394.268 346.641 395.319C346.472 395.419 346.336 395.147 346.504 395.047Z" fill="white" fill-opacity="0.1"/>
<path d="M348.197 378.45C348.543 378.614 348.924 378.69 349.307 378.67C349.689 378.651 350.061 378.537 350.389 378.339C350.556 378.237 350.692 378.509 350.526 378.611C350.163 378.828 349.752 378.953 349.329 378.976C348.907 378.998 348.485 378.917 348.101 378.739C348.064 378.725 348.033 378.698 348.015 378.662C347.997 378.626 347.993 378.585 348.004 378.547C348.017 378.509 348.045 378.477 348.081 378.459C348.117 378.441 348.158 378.438 348.197 378.45Z" fill="white" fill-opacity="0.1"/>
<path d="M371.793 385.445C371.69 385.511 371.587 385.578 371.484 385.647C370.105 386.552 368.803 387.567 367.589 388.682C367.494 388.767 367.399 388.854 367.306 388.941C364.41 391.659 362.046 394.889 360.332 398.469C359.651 399.893 359.08 401.368 358.623 402.879C357.993 404.966 357.476 407.28 356.228 408.987C356.1 409.166 355.961 409.338 355.812 409.5H344.536C344.51 409.488 344.484 409.477 344.459 409.464L344.008 409.485C344.026 409.405 344.047 409.323 344.065 409.244C344.075 409.197 344.088 409.151 344.098 409.105C344.106 409.074 344.114 409.043 344.119 409.015C344.121 409.005 344.124 408.995 344.127 408.987C344.132 408.959 344.14 408.933 344.145 408.907C344.258 408.448 344.374 407.988 344.495 407.529L344.497 407.523C345.378 404.013 346.674 400.619 348.356 397.413C348.407 397.318 348.459 397.221 348.516 397.126C349.295 395.707 350.189 394.354 351.189 393.08C351.738 392.384 352.323 391.717 352.941 391.08C354.539 389.438 356.386 388.057 358.415 386.988C362.459 384.857 367.141 384.04 371.463 385.342C371.574 385.375 371.682 385.409 371.793 385.445Z" fill="#F0F0F0" fill-opacity="0.5"/>
<path d="M371.767 385.587C366.153 386.7 361.032 389.55 357.132 393.733C356.277 394.618 355.567 395.633 355.028 396.739C354.538 397.833 354.35 399.039 354.485 400.23C354.677 401.339 354.734 402.467 354.654 403.589C354.558 404.161 354.343 404.706 354.022 405.188C353.7 405.671 353.281 406.08 352.79 406.389C351.556 407.118 350.188 407.592 348.767 407.783C347.212 408.081 345.593 408.365 344.296 409.334C344.139 409.451 343.966 409.201 344.123 409.084C346.379 407.398 349.404 407.752 351.873 406.562C352.461 406.319 352.985 405.946 353.406 405.47C353.827 404.993 354.133 404.428 354.302 403.815C354.448 402.679 354.412 401.527 354.196 400.402C354.047 399.242 354.186 398.063 354.599 396.968C355.079 395.838 355.749 394.798 356.58 393.892C358.417 391.823 360.568 390.055 362.955 388.653C365.671 387.038 368.643 385.898 371.744 385.284C371.936 385.246 371.958 385.549 371.767 385.587Z" fill="white" fill-opacity="0.1"/>
<path d="M358.309 392.312C357.694 391.564 357.366 390.623 357.383 389.656C357.401 388.688 357.762 387.759 358.402 387.033C358.532 386.886 358.766 387.081 358.636 387.228C358.038 387.903 357.702 388.769 357.688 389.669C357.674 390.57 357.983 391.446 358.559 392.139C358.684 392.29 358.433 392.462 358.309 392.312Z" fill="white" fill-opacity="0.1"/>
<path d="M354.358 399.673C356.328 399.886 358.306 399.35 359.898 398.172C360.055 398.055 360.229 398.305 360.071 398.422C358.413 399.645 356.353 400.198 354.304 399.972C354.109 399.951 354.164 399.651 354.358 399.673Z" fill="white" fill-opacity="0.1"/>
<path d="M365.723 387.438C365.9 387.777 366.159 388.067 366.476 388.281C366.793 388.496 367.159 388.628 367.54 388.667C367.736 388.686 367.68 388.985 367.486 388.966C367.065 388.921 366.661 388.775 366.31 388.539C365.959 388.302 365.672 387.984 365.472 387.611C365.451 387.578 365.442 387.537 365.45 387.498C365.457 387.459 365.479 387.424 365.511 387.4C365.544 387.377 365.585 387.368 365.625 387.376C365.664 387.383 365.7 387.405 365.723 387.438Z" fill="white" fill-opacity="0.1"/>
<path d="M533.918 243.551C530.533 216.387 513.664 189.623 487.704 180.783C497.942 208.742 497.939 239.414 487.698 267.372C483.709 278.14 478.148 289.702 481.9 300.554C484.235 307.307 489.946 312.473 496.33 315.704C502.715 318.934 509.8 320.474 516.797 321.983L518.174 323.119C529.281 298.09 537.303 270.715 533.918 243.551Z" fill="#F0F0F0" fill-opacity="0.5"/>
<path d="M487.446 181.297C502.564 198.201 511.96 219.429 514.3 241.965C514.772 246.796 514.829 251.738 513.771 256.5C512.704 261.134 510.412 265.398 507.135 268.849C504.144 272.128 500.705 275.137 498.565 279.085C496.309 283.246 496.222 287.973 497.767 292.393C499.656 297.801 503.38 302.209 507.171 306.393C511.381 311.039 515.828 315.798 517.617 321.957C517.834 322.703 518.982 322.324 518.765 321.579C515.652 310.863 505.228 304.776 500.257 295.125C497.938 290.621 496.964 285.393 499.139 280.639C501.04 276.482 504.585 273.376 507.642 270.082C510.852 266.623 513.313 262.828 514.581 258.249C515.878 253.564 516.014 248.609 515.668 243.787C514.802 232.859 512.219 222.134 508.014 212.006C503.279 200.42 496.594 189.728 488.246 180.392C487.729 179.814 486.933 180.723 487.446 181.297Z" fill="white" fill-opacity="0.1"/>
<path d="M508.871 267.386C502.124 263.366 497.143 256.955 494.922 249.433C494.703 248.688 493.555 249.067 493.774 249.811C496.1 257.635 501.297 264.295 508.327 268.464C508.998 268.86 509.538 267.781 508.871 267.386Z" fill="white" fill-opacity="0.1"/>
<path d="M502.158 201.562C500.786 202.213 499.273 202.514 497.755 202.437C496.238 202.36 494.764 201.908 493.464 201.122C492.799 200.717 492.26 201.797 492.921 202.2C494.36 203.061 495.989 203.558 497.665 203.647C499.342 203.736 501.014 203.413 502.537 202.708C502.686 202.654 502.809 202.545 502.88 202.403C502.952 202.261 502.966 202.098 502.921 201.946C502.87 201.795 502.762 201.669 502.619 201.598C502.476 201.526 502.31 201.513 502.158 201.562Z" fill="white" fill-opacity="0.1"/>
<path d="M408.575 229.301C408.983 229.566 409.391 229.831 409.8 230.106C415.267 233.693 420.433 237.718 425.247 242.141C425.624 242.477 426.002 242.823 426.369 243.169C437.853 253.948 447.232 266.76 454.03 280.955C456.729 286.606 458.994 292.454 460.805 298.448C463.305 306.726 465.355 315.9 470.304 322.671C470.812 323.383 471.364 324.063 471.957 324.707H516.677C516.779 324.656 516.881 324.616 516.983 324.565L518.769 324.646C518.697 324.331 518.616 324.005 518.544 323.689C518.503 323.506 518.452 323.323 518.412 323.139C518.381 323.017 518.35 322.895 518.33 322.783C518.32 322.742 518.309 322.702 518.3 322.671C518.279 322.559 518.248 322.457 518.228 322.355C517.779 320.533 517.316 318.71 516.84 316.888C516.84 316.877 516.84 316.877 516.83 316.867C513.167 302.989 508.311 289.294 501.526 276.77C501.321 276.393 501.118 276.006 500.893 275.63C497.803 270.001 494.258 264.635 490.292 259.583C488.111 256.824 485.792 254.176 483.343 251.651C477.004 245.138 469.677 239.661 461.631 235.421C445.592 226.97 427.022 223.732 409.881 228.894C409.442 229.026 409.013 229.159 408.575 229.301Z" fill="#F0F0F0" fill-opacity="0.5"/>
<path d="M408.676 229.867C430.945 234.281 451.254 245.585 466.719 262.173C470.01 265.747 473.037 269.659 475.065 274.097C477.009 278.438 477.752 283.219 477.218 287.944C476.808 292.359 475.877 296.828 476.55 301.265C477.259 305.943 480.042 309.77 483.942 312.371C488.713 315.554 494.346 316.836 499.897 317.898C506.062 319.078 512.483 320.207 517.628 324.049C518.251 324.515 518.939 323.522 518.316 323.057C509.365 316.372 497.37 317.775 487.579 313.055C483.009 310.853 479.078 307.264 477.946 302.161C476.956 297.7 477.913 293.09 478.366 288.623C478.842 283.933 478.518 279.424 476.767 275.006C474.976 270.486 472.096 266.449 468.91 262.806C461.625 254.601 453.093 247.589 443.625 242.029C432.855 235.623 421.066 231.103 408.768 228.664C408.007 228.514 407.919 229.718 408.676 229.867Z" fill="white" fill-opacity="0.1"/>
<path d="M462.054 256.54C464.491 253.572 465.791 249.838 465.723 246.002C465.655 242.166 464.223 238.48 461.683 235.6C461.167 235.02 460.238 235.793 460.755 236.374C463.125 239.051 464.459 242.485 464.515 246.057C464.571 249.629 463.346 253.103 461.06 255.853C460.564 256.451 461.561 257.134 462.054 256.54Z" fill="white" fill-opacity="0.1"/>
<path d="M477.721 285.732C469.908 286.576 462.064 284.45 455.752 279.779C455.127 279.316 454.44 280.308 455.064 280.771C461.641 285.62 469.809 287.815 477.937 286.919C478.712 286.834 478.492 285.647 477.721 285.732Z" fill="white" fill-opacity="0.1"/>
<path d="M432.649 237.21C431.945 238.554 430.919 239.703 429.661 240.553C428.403 241.403 426.953 241.928 425.442 242.081C424.666 242.158 424.887 243.344 425.658 243.268C427.327 243.092 428.927 242.51 430.319 241.573C431.711 240.637 432.852 239.375 433.642 237.897C433.729 237.764 433.761 237.603 433.732 237.447C433.704 237.291 433.617 237.152 433.49 237.057C433.358 236.967 433.195 236.932 433.038 236.961C432.88 236.989 432.74 237.079 432.649 237.21Z" fill="white" fill-opacity="0.1"/>
<path d="M233.568 383.665H113.864C113.688 383.665 113.519 383.595 113.395 383.471C113.27 383.347 113.2 383.178 113.2 383.002C113.2 382.827 113.27 382.658 113.395 382.534C113.519 382.41 113.688 382.34 113.864 382.34H233.351C233.527 382.34 233.696 382.41 233.82 382.534C233.945 382.658 234.015 382.827 234.015 383.002C234.015 383.368 233.934 383.665 233.568 383.665Z" fill="#CACACA"/>
<path d="M421.427 409.5H301.724C301.548 409.5 301.379 409.43 301.254 409.306C301.13 409.182 301.06 409.013 301.06 408.838C301.06 408.662 301.13 408.494 301.254 408.369C301.379 408.245 301.548 408.175 301.724 408.175H421.21C421.386 408.175 421.555 408.245 421.68 408.369C421.804 408.494 421.874 408.662 421.874 408.838C421.874 409.204 421.794 409.5 421.427 409.5Z" fill="#CACACA"/>
<path d="M534.275 383.002H414.572C414.396 383.002 414.227 382.932 414.103 382.808C413.978 382.684 413.908 382.515 413.908 382.34C413.908 382.164 413.978 381.996 414.103 381.871C414.227 381.747 414.396 381.677 414.572 381.677H534.059C534.235 381.677 534.403 381.747 534.528 381.871C534.652 381.996 534.722 382.164 534.722 382.34C534.722 382.706 534.642 383.002 534.275 383.002Z" fill="#CACACA"/>
<path d="M264.722 357.829C257.286 357.829 250.478 357.118 245.069 355.438C238.64 353.44 234.603 350.209 233.07 345.828C232.349 343.968 232.134 341.951 232.446 339.981C232.758 338.011 233.586 336.159 234.847 334.612C244.358 322.244 277.362 318.756 281.79 318.344L290.774 301.367C291.349 297.317 288.629 294.25 293.328 294.174L348.913 293.42C353.527 293.324 352.218 296.175 353.008 300.125L361.476 315.211L325.029 330.562L330.539 343.962L330.18 344.171C319.513 350.346 288.836 357.828 264.722 357.829Z" fill="#2F2E41"/>
<path d="M356.431 315.855C356.431 315.855 407.332 310.042 404.012 333.295C400.693 356.547 361.963 373.017 303.316 333.295L309.955 321.668C309.955 321.668 331.81 320.584 345.089 314.771L356.431 315.855Z" fill="#2F2E41"/>
<path d="M284.367 210.513C284.367 210.513 274.693 208.758 272.054 223.679C269.416 238.599 265.189 273.942 265.189 273.942L252.066 319.342C250.519 320.162 249.237 321.405 248.37 322.925C247.503 324.444 247.088 326.179 247.172 327.926C247.257 329.672 247.837 331.359 248.846 332.789C249.856 334.219 251.251 335.332 252.871 336C254.491 336.667 256.267 336.861 257.993 336.559C259.719 336.256 261.323 335.47 262.618 334.292C263.913 333.114 264.845 331.592 265.306 329.905C265.767 328.218 265.737 326.435 265.22 324.764L282.779 276.579L286.126 235.092V213.354C286.126 212.764 285.962 212.186 285.651 211.684C285.34 211.183 284.896 210.777 284.367 210.513Z" fill="#FEB8B8"/>
<path d="M352.464 210.513C352.464 210.513 362.139 208.758 364.777 223.679C367.416 238.599 371.642 273.942 371.642 273.942L384.765 319.342C386.313 320.162 387.595 321.405 388.462 322.925C389.328 324.444 389.744 326.179 389.659 327.926C389.575 329.672 388.994 331.359 387.985 332.789C386.976 334.219 385.58 335.332 383.96 336C382.341 336.667 380.564 336.861 378.838 336.559C377.112 336.256 375.508 335.47 374.213 334.292C372.918 333.114 371.986 331.592 371.525 329.905C371.065 328.218 371.095 326.435 371.611 324.764L354.052 276.579L350.705 235.092V213.354C350.705 212.764 350.87 212.186 351.181 211.684C351.491 211.183 351.936 210.777 352.464 210.513Z" fill="#FEB8B8"/>
<path d="M351.727 198.18L333.427 191.35L297.958 190.894L282.69 198.18L286.978 222.774C286.978 222.774 278.32 237.404 287.853 252.036L289.992 304.171C289.992 304.171 324.189 323.961 353.054 300.197L346.53 251.723C346.53 251.723 357.443 229.233 348.984 220.878L351.727 198.18Z" fill="#6C63FF"/>
<path d="M344.273 205.823L351.727 198.18C351.727 198.18 367.993 206.719 367.658 235.277L347.139 228.966L344.273 205.823Z" fill="#6C63FF"/>
<path d="M290.97 205.823L283.051 197.921C283.051 197.921 269.079 208.707 269.414 237.265L288.105 228.967L290.97 205.823Z" fill="#6C63FF"/>
<path d="M342.591 338.117C342.591 338.117 336.891 326.148 327.372 331.886C317.852 337.623 300.338 347.153 300.338 347.153C300.338 347.153 296.241 353.986 305.186 352.189C314.132 350.392 342.868 348.989 342.868 348.989L342.591 338.117Z" fill="#FEB8B8"/>
<path d="M326.755 124.174C326.835 124.097 326.92 124.028 326.999 123.949C332.093 118.865 333.125 111.654 329.305 107.842C325.695 104.239 319.045 104.966 314.026 109.347C309.722 105.258 303.951 104.118 300.216 106.941C295.909 110.195 295.943 117.48 300.292 123.211C300.589 123.603 300.902 123.974 301.223 124.331C295.436 126.445 290.439 130.282 286.909 135.323C283.378 140.364 281.485 146.366 281.485 152.516V181.08C281.485 181.918 281.651 182.747 281.972 183.521C282.293 184.295 282.764 184.998 283.357 185.59C283.951 186.183 284.656 186.653 285.431 186.973C286.206 187.294 287.038 187.459 287.877 187.459H340.78C342.418 187.459 343.989 186.809 345.148 185.653C346.306 184.497 346.957 182.929 346.957 181.294V152.516C346.956 146.283 345.01 140.205 341.39 135.126C337.77 130.047 332.655 126.22 326.755 124.174Z" fill="#2F2E41"/>
<path d="M332.808 177.271C342.612 167.488 342.612 151.626 332.808 141.842C323.004 132.059 307.109 132.059 297.305 141.842C287.502 151.626 287.502 167.488 297.305 177.271C307.109 187.055 323.004 187.055 332.808 177.271Z" fill="#FFB6B6"/>
<path d="M288.678 143.799C294.415 147.744 301.224 149.844 308.191 149.817C305.706 151.536 302.876 152.698 299.898 153.221C309.161 155.204 318.735 155.258 328.02 153.379C330.084 153.049 332.076 152.366 333.907 151.361C334.82 150.852 335.615 150.158 336.241 149.322C336.867 148.487 337.31 147.529 337.541 146.511C338.158 142.994 335.412 139.798 332.557 137.644C328.187 134.397 323.149 132.16 317.806 131.095C312.463 130.029 306.95 130.162 301.665 131.484C298.214 132.374 294.757 133.878 292.515 136.644C290.274 139.409 289.61 143.673 291.745 146.521L288.678 143.799Z" fill="#2F2E41"/>
<path d="M154.403 93.8062L155.194 92.7419L176.27 108.342C175.124 104.859 171.07 93.8158 164.425 89.4096C156.485 84.1458 150.9 85.7832 147.856 90.3542C144.813 94.9252 145.465 100.698 153.404 105.963C160.134 110.425 172.123 109.804 175.621 109.512L154.403 93.8062Z" fill="#F2F2F2" fill-opacity="0.5"/>
<path d="M471.505 8.39455L472.484 9.29048L454.744 28.5858C458.335 27.8113 469.762 24.9362 474.845 18.7985C480.917 11.466 479.866 5.75168 475.627 2.25579C471.388 -1.2401 465.566 -1.1938 459.494 6.13871C454.347 12.3542 453.718 24.3179 453.646 27.82L471.505 8.39455Z" fill="#F2F2F2" fill-opacity="0.5"/>
<path d="M185.402 214.415L186.38 215.311L168.64 234.606C172.231 233.831 183.659 230.956 188.741 224.819C194.813 217.486 193.762 211.772 189.523 208.276C185.284 204.78 179.462 204.826 173.39 212.159C168.243 218.374 167.614 230.338 167.542 233.84L185.402 214.415Z" fill="#F2F2F2" fill-opacity="0.5"/>
<path d="M335.408 30.5056L336.558 31.1694L323.416 53.8348C326.754 52.3041 337.289 47.0323 340.922 39.9435C345.263 31.4747 342.999 26.1221 338.103 23.6231C333.207 21.1241 327.533 22.4249 323.192 30.8937C319.513 38.0724 321.49 49.889 322.178 53.3239L335.408 30.5056Z" fill="#F2F2F2" fill-opacity="0.5"/>
<path d="M458.214 172.269L459.363 172.933L446.221 195.598C449.56 194.067 460.095 188.795 463.728 181.707C468.068 173.238 465.805 167.885 460.909 165.386C456.013 162.887 450.339 164.188 445.998 172.657C442.319 179.836 444.296 191.652 444.984 195.087L458.214 172.269Z" fill="#F2F2F2" fill-opacity="0.5"/>
</g>
<defs>
<clipPath id="clip0_55_1143">
<rect width="543" height="409.5" fill="white" transform="translate(43.5)"/>
</clipPath>
</defs>
</svg>
