<svg width="32" height="32" viewBox="0 0 32 32" fill="none" xmlns="http://www.w3.org/2000/svg">
<g id="basil:instagram-solid">
<rect width="32" height="32" rx="16" fill="#65688E"/>
<path id="Vector" d="M16.0001 11.6665C14.8508 11.6665 13.7486 12.1231 12.936 12.9357C12.1233 13.7484 11.6667 14.8506 11.6667 15.9998C11.6667 17.1491 12.1233 18.2513 12.936 19.064C13.7486 19.8766 14.8508 20.3332 16.0001 20.3332C17.1494 20.3332 18.2516 19.8766 19.0642 19.064C19.8769 18.2513 20.3334 17.1491 20.3334 15.9998C20.3334 14.8506 19.8769 13.7484 19.0642 12.9357C18.2516 12.1231 17.1494 11.6665 16.0001 11.6665Z" fill="#65688E"/>
<path id="Vector_2" fill-rule="evenodd" clip-rule="evenodd" d="M9.93102 5.66827C13.9646 5.22191 18.0353 5.22191 22.0689 5.66827C24.2725 5.91386 26.0491 7.64578 26.3078 9.85383C26.7862 13.9371 26.7862 18.062 26.3078 22.1452C26.0491 24.3533 24.2725 26.0852 22.07 26.332C18.0361 26.7785 13.965 26.7785 9.93102 26.332C7.72741 26.0852 5.95083 24.3533 5.69205 22.1464C5.21365 18.0628 5.21365 13.9374 5.69205 9.85383C5.95083 7.64578 7.72741 5.91386 9.93102 5.66827ZM21.802 9.04869C21.4942 9.04869 21.1991 9.17075 20.9814 9.388C20.7638 9.60526 20.6416 9.89992 20.6416 10.2072C20.6416 10.5144 20.7638 10.8091 20.9814 11.0263C21.1991 11.2436 21.4942 11.3656 21.802 11.3656C22.1097 11.3656 22.4049 11.2436 22.6225 11.0263C22.8401 10.8091 22.9624 10.5144 22.9624 10.2072C22.9624 9.89992 22.8401 9.60526 22.6225 9.388C22.4049 9.17075 22.1097 9.04869 21.802 9.04869ZM10.488 15.9995C10.488 14.5401 11.0687 13.1405 12.1024 12.1085C13.1361 11.0765 14.5381 10.4968 15.9999 10.4968C17.4618 10.4968 18.8638 11.0765 19.8975 12.1085C20.9312 13.1405 21.5119 14.5401 21.5119 15.9995C21.5119 17.459 20.9312 18.8586 19.8975 19.8906C18.8638 20.9225 17.4618 21.5023 15.9999 21.5023C14.5381 21.5023 13.1361 20.9225 12.1024 19.8906C11.0687 18.8586 10.488 17.459 10.488 15.9995Z" fill="white"/>
</g>
</svg>
