<svg width="499" height="261" viewBox="0 0 499 261" fill="none" xmlns="http://www.w3.org/2000/svg">
<line x1="32.6044" y1="28.6664" x2="65.8986" y2="64.6177" stroke="#65688E"/>
<line x1="0.0923907" y1="83.275" x2="48.2486" y2="92.3293" stroke="#65688E"/>
<line x1="95.1351" y1="0.951417" x2="99.8962" y2="49.7196" stroke="#65688E"/>
<path d="M92.0284 91.7358V88.4545H114.938V91.7358H105.332V119H101.634V91.7358H92.0284ZM123.689 105.219V119H120.169V88.4545H123.689V99.6705H123.987C124.524 98.4872 125.329 97.5476 126.403 96.8516C127.487 96.1456 128.929 95.7926 130.729 95.7926C132.29 95.7926 133.657 96.1058 134.83 96.7322C136.003 97.3487 136.913 98.2983 137.559 99.581C138.216 100.854 138.544 102.474 138.544 104.443V119H135.024V104.682C135.024 102.862 134.552 101.455 133.607 100.461C132.672 99.4567 131.375 98.9545 129.714 98.9545C128.561 98.9545 127.527 99.1982 126.612 99.6854C125.707 100.173 124.991 100.884 124.464 101.818C123.947 102.753 123.689 103.886 123.689 105.219ZM154.588 119.477C152.381 119.477 150.477 118.99 148.876 118.016C147.285 117.031 146.057 115.659 145.192 113.899C144.337 112.129 143.909 110.071 143.909 107.724C143.909 105.378 144.337 103.31 145.192 101.52C146.057 99.7202 147.26 98.3182 148.801 97.3139C150.353 96.2997 152.162 95.7926 154.23 95.7926C155.424 95.7926 156.602 95.9915 157.765 96.3892C158.929 96.7869 159.988 97.4332 160.942 98.3281C161.897 99.2131 162.657 100.386 163.224 101.848C163.791 103.31 164.074 105.109 164.074 107.247V108.739H146.415V105.696H160.495C160.495 104.403 160.236 103.25 159.719 102.236C159.212 101.222 158.486 100.421 157.542 99.8345C156.607 99.2479 155.503 98.9545 154.23 98.9545C152.828 98.9545 151.615 99.3026 150.591 99.9986C149.577 100.685 148.797 101.58 148.25 102.683C147.703 103.787 147.429 104.97 147.429 106.233V108.261C147.429 109.991 147.728 111.458 148.324 112.661C148.931 113.854 149.771 114.764 150.845 115.391C151.919 116.007 153.167 116.315 154.588 116.315C155.513 116.315 156.348 116.186 157.094 115.928C157.85 115.659 158.501 115.261 159.048 114.734C159.595 114.197 160.017 113.531 160.316 112.736L163.716 113.69C163.358 114.844 162.757 115.858 161.912 116.733C161.066 117.598 160.022 118.274 158.779 118.761C157.537 119.239 156.14 119.477 154.588 119.477ZM186.431 119L179.451 96.0909H183.15L188.102 113.631H188.341L193.233 96.0909H196.991L201.824 113.571H202.062L207.014 96.0909H210.713L203.733 119H200.272L195.261 101.401H194.903L189.892 119H186.431ZM223.894 119.477C221.825 119.477 220.011 118.985 218.45 118.001C216.899 117.016 215.686 115.639 214.811 113.869C213.945 112.099 213.513 110.031 213.513 107.665C213.513 105.278 213.945 103.195 214.811 101.415C215.686 99.6357 216.899 98.2536 218.45 97.2692C220.011 96.2848 221.825 95.7926 223.894 95.7926C225.962 95.7926 227.771 96.2848 229.323 97.2692C230.884 98.2536 232.097 99.6357 232.962 101.415C233.837 103.195 234.274 105.278 234.274 107.665C234.274 110.031 233.837 112.099 232.962 113.869C232.097 115.639 230.884 117.016 229.323 118.001C227.771 118.985 225.962 119.477 223.894 119.477ZM223.894 116.315C225.465 116.315 226.757 115.913 227.771 115.107C228.786 114.302 229.536 113.243 230.024 111.93C230.511 110.618 230.754 109.196 230.754 107.665C230.754 106.134 230.511 104.707 230.024 103.384C229.536 102.062 228.786 100.993 227.771 100.178C226.757 99.3622 225.465 98.9545 223.894 98.9545C222.323 98.9545 221.03 99.3622 220.016 100.178C219.002 100.993 218.251 102.062 217.764 103.384C217.276 104.707 217.033 106.134 217.033 107.665C217.033 109.196 217.276 110.618 217.764 111.93C218.251 113.243 219.002 114.302 220.016 115.107C221.03 115.913 222.323 116.315 223.894 116.315ZM239.647 119V96.0909H243.048V99.5511H243.287C243.704 98.4176 244.46 97.4979 245.554 96.7919C246.647 96.0859 247.88 95.733 249.252 95.733C249.511 95.733 249.834 95.7379 250.222 95.7479C250.61 95.7578 250.903 95.7727 251.102 95.7926V99.3722C250.983 99.3423 250.709 99.2976 250.282 99.2379C249.864 99.1683 249.422 99.1335 248.954 99.1335C247.841 99.1335 246.846 99.3672 245.971 99.8345C245.106 100.292 244.42 100.928 243.913 101.744C243.416 102.549 243.167 103.469 243.167 104.503V119H239.647ZM258.794 88.4545V119H255.274V88.4545H258.794ZM273.892 119.477C271.983 119.477 270.297 118.995 268.836 118.031C267.374 117.056 266.23 115.684 265.405 113.914C264.58 112.134 264.167 110.031 264.167 107.605C264.167 105.199 264.58 103.111 265.405 101.341C266.23 99.571 267.379 98.2038 268.85 97.2393C270.322 96.2749 272.022 95.7926 273.951 95.7926C275.443 95.7926 276.621 96.0412 277.486 96.5384C278.361 97.0256 279.027 97.5824 279.485 98.2088C279.952 98.8253 280.315 99.3324 280.574 99.7301H280.872V88.4545H284.392V119H280.991V115.48H280.574C280.315 115.898 279.947 116.425 279.47 117.061C278.993 117.687 278.311 118.249 277.426 118.746C276.542 119.234 275.363 119.477 273.892 119.477ZM274.369 116.315C275.781 116.315 276.974 115.947 277.949 115.212C278.923 114.466 279.664 113.437 280.171 112.124C280.678 110.802 280.931 109.276 280.931 107.545C280.931 105.835 280.683 104.339 280.186 103.056C279.689 101.763 278.953 100.759 277.978 100.043C277.004 99.3175 275.801 98.9545 274.369 98.9545C272.877 98.9545 271.635 99.3374 270.64 100.103C269.656 100.859 268.915 101.888 268.418 103.19C267.931 104.483 267.687 105.935 267.687 107.545C267.687 109.176 267.936 110.658 268.433 111.99C268.94 113.312 269.686 114.366 270.67 115.152C271.664 115.928 272.897 116.315 274.369 116.315ZM294.429 88.4545V91.1392C294.429 91.9545 294.28 92.8246 293.982 93.7493C293.694 94.6641 293.266 95.554 292.699 96.419C292.142 97.2741 291.466 98.0199 290.671 98.6562L288.762 97.1051C289.388 96.2102 289.93 95.2805 290.387 94.3161C290.855 93.3416 291.088 92.3026 291.088 91.1989V88.4545H294.429ZM312.066 101.222L308.904 102.116C308.705 101.589 308.412 101.077 308.024 100.58C307.646 100.073 307.129 99.6555 306.473 99.3274C305.817 98.9993 304.977 98.8352 303.952 98.8352C302.55 98.8352 301.382 99.1584 300.447 99.8047C299.523 100.441 299.06 101.251 299.06 102.236C299.06 103.111 299.379 103.802 300.015 104.309C300.651 104.816 301.646 105.239 302.998 105.577L306.398 106.412C308.447 106.909 309.973 107.67 310.977 108.694C311.982 109.708 312.484 111.016 312.484 112.616C312.484 113.929 312.106 115.102 311.35 116.136C310.604 117.17 309.56 117.986 308.218 118.582C306.876 119.179 305.315 119.477 303.535 119.477C301.198 119.477 299.264 118.97 297.733 117.956C296.202 116.942 295.232 115.46 294.825 113.511L298.165 112.676C298.484 113.909 299.085 114.834 299.97 115.45C300.865 116.067 302.033 116.375 303.475 116.375C305.116 116.375 306.418 116.027 307.383 115.331C308.357 114.625 308.844 113.78 308.844 112.795C308.844 112 308.566 111.334 308.009 110.797C307.452 110.25 306.597 109.842 305.444 109.574L301.626 108.679C299.528 108.182 297.987 107.411 297.002 106.367C296.028 105.313 295.54 103.996 295.54 102.415C295.54 101.122 295.903 99.9787 296.629 98.9844C297.365 97.9901 298.364 97.2095 299.627 96.6428C300.9 96.076 302.342 95.7926 303.952 95.7926C306.219 95.7926 307.999 96.2898 309.292 97.2841C310.594 98.2784 311.519 99.5909 312.066 101.222ZM333.115 88.4545V119H329.595V88.4545H333.115ZM346.303 119.537C344.851 119.537 343.534 119.263 342.35 118.717C341.167 118.16 340.228 117.359 339.532 116.315C338.836 115.261 338.488 113.989 338.488 112.497C338.488 111.185 338.746 110.121 339.263 109.305C339.78 108.48 340.471 107.834 341.336 107.366C342.201 106.899 343.156 106.551 344.2 106.322C345.254 106.084 346.313 105.895 347.377 105.756C348.769 105.577 349.897 105.442 350.762 105.353C351.637 105.254 352.274 105.089 352.672 104.861C353.079 104.632 353.283 104.234 353.283 103.668V103.548C353.283 102.077 352.88 100.933 352.075 100.118C351.279 99.3026 350.071 98.8949 348.451 98.8949C346.77 98.8949 345.453 99.2628 344.498 99.9986C343.544 100.734 342.873 101.52 342.485 102.355L339.144 101.162C339.74 99.7699 340.536 98.6861 341.53 97.9105C342.534 97.125 343.628 96.5781 344.811 96.2699C346.005 95.9517 347.178 95.7926 348.331 95.7926C349.067 95.7926 349.912 95.8821 350.867 96.0611C351.831 96.2301 352.761 96.5831 353.656 97.12C354.561 97.657 355.311 98.4673 355.908 99.5511C356.505 100.635 356.803 102.087 356.803 103.906V119H353.283V115.898H353.104C352.865 116.395 352.468 116.927 351.911 117.494C351.354 118.06 350.613 118.543 349.689 118.94C348.764 119.338 347.635 119.537 346.303 119.537ZM346.84 116.375C348.232 116.375 349.405 116.102 350.36 115.555C351.324 115.008 352.05 114.302 352.537 113.437C353.034 112.572 353.283 111.662 353.283 110.707V107.486C353.134 107.665 352.806 107.829 352.299 107.978C351.801 108.117 351.225 108.241 350.569 108.351C349.922 108.45 349.291 108.54 348.674 108.619C348.068 108.689 347.576 108.749 347.198 108.798C346.283 108.918 345.428 109.112 344.632 109.38C343.847 109.638 343.211 110.031 342.723 110.558C342.246 111.075 342.007 111.781 342.007 112.676C342.007 113.899 342.46 114.824 343.365 115.45C344.279 116.067 345.438 116.375 346.84 116.375ZM363.227 119V96.0909H366.628V99.5511H366.867C367.284 98.4176 368.04 97.4979 369.134 96.7919C370.227 96.0859 371.46 95.733 372.833 95.733C373.091 95.733 373.414 95.7379 373.802 95.7479C374.19 95.7578 374.483 95.7727 374.682 95.7926V99.3722C374.563 99.3423 374.289 99.2976 373.862 99.2379C373.444 99.1683 373.002 99.1335 372.534 99.1335C371.421 99.1335 370.426 99.3672 369.551 99.8345C368.686 100.292 368 100.928 367.493 101.744C366.996 102.549 366.747 103.469 366.747 104.503V119H363.227ZM387.404 128.068C385.704 128.068 384.242 127.849 383.019 127.412C381.796 126.984 380.777 126.418 379.962 125.712C379.156 125.016 378.515 124.27 378.038 123.474L380.842 121.506C381.16 121.923 381.563 122.401 382.05 122.938C382.537 123.484 383.203 123.957 384.048 124.354C384.904 124.762 386.022 124.966 387.404 124.966C389.254 124.966 390.78 124.518 391.983 123.624C393.186 122.729 393.788 121.327 393.788 119.418V114.764H393.49C393.231 115.182 392.863 115.699 392.386 116.315C391.919 116.922 391.242 117.464 390.357 117.941C389.482 118.408 388.299 118.642 386.808 118.642C384.958 118.642 383.298 118.205 381.826 117.33C380.365 116.455 379.206 115.182 378.351 113.511C377.506 111.841 377.083 109.812 377.083 107.426C377.083 105.08 377.496 103.036 378.321 101.296C379.146 99.5462 380.295 98.1939 381.767 97.2393C383.238 96.2749 384.938 95.7926 386.867 95.7926C388.359 95.7926 389.542 96.0412 390.417 96.5384C391.302 97.0256 391.978 97.5824 392.445 98.2088C392.923 98.8253 393.291 99.3324 393.549 99.7301H393.907V96.0909H397.308V119.656C397.308 121.625 396.86 123.226 395.965 124.459C395.08 125.702 393.887 126.612 392.386 127.188C390.894 127.775 389.234 128.068 387.404 128.068ZM387.285 115.48C388.697 115.48 389.89 115.157 390.865 114.511C391.839 113.864 392.58 112.935 393.087 111.722C393.594 110.509 393.847 109.057 393.847 107.366C393.847 105.716 393.599 104.259 393.102 102.996C392.605 101.734 391.869 100.744 390.894 100.028C389.92 99.3125 388.717 98.9545 387.285 98.9545C385.794 98.9545 384.551 99.3324 383.556 100.088C382.572 100.844 381.831 101.858 381.334 103.131C380.847 104.403 380.603 105.815 380.603 107.366C380.603 108.957 380.852 110.364 381.349 111.587C381.856 112.8 382.602 113.755 383.586 114.451C384.58 115.137 385.813 115.48 387.285 115.48ZM413.356 119.477C411.149 119.477 409.244 118.99 407.644 118.016C406.053 117.031 404.825 115.659 403.96 113.899C403.105 112.129 402.677 110.071 402.677 107.724C402.677 105.378 403.105 103.31 403.96 101.52C404.825 99.7202 406.028 98.3182 407.569 97.3139C409.12 96.2997 410.93 95.7926 412.998 95.7926C414.191 95.7926 415.369 95.9915 416.533 96.3892C417.696 96.7869 418.755 97.4332 419.71 98.3281C420.664 99.2131 421.425 100.386 421.992 101.848C422.558 103.31 422.842 105.109 422.842 107.247V108.739H405.183V105.696H419.262C419.262 104.403 419.004 103.25 418.487 102.236C417.98 101.222 417.254 100.421 416.309 99.8345C415.374 99.2479 414.271 98.9545 412.998 98.9545C411.596 98.9545 410.383 99.3026 409.359 99.9986C408.345 100.685 407.564 101.58 407.017 102.683C406.47 103.787 406.197 104.97 406.197 106.233V108.261C406.197 109.991 406.495 111.458 407.092 112.661C407.698 113.854 408.539 114.764 409.612 115.391C410.686 116.007 411.934 116.315 413.356 116.315C414.281 116.315 415.116 116.186 415.862 115.928C416.617 115.659 417.269 115.261 417.816 114.734C418.362 114.197 418.785 113.531 419.083 112.736L422.484 113.69C422.126 114.844 421.524 115.858 420.679 116.733C419.834 117.598 418.79 118.274 417.547 118.761C416.304 119.239 414.907 119.477 413.356 119.477ZM444.423 101.222L441.262 102.116C441.063 101.589 440.769 101.077 440.382 100.58C440.004 100.073 439.487 99.6555 438.83 99.3274C438.174 98.9993 437.334 98.8352 436.31 98.8352C434.908 98.8352 433.74 99.1584 432.805 99.8047C431.88 100.441 431.418 101.251 431.418 102.236C431.418 103.111 431.736 103.802 432.372 104.309C433.009 104.816 434.003 105.239 435.355 105.577L438.756 106.412C440.804 106.909 442.33 107.67 443.335 108.694C444.339 109.708 444.841 111.016 444.841 112.616C444.841 113.929 444.463 115.102 443.708 116.136C442.962 117.17 441.918 117.986 440.575 118.582C439.233 119.179 437.672 119.477 435.892 119.477C433.556 119.477 431.622 118.97 430.09 117.956C428.559 116.942 427.59 115.46 427.182 113.511L430.523 112.676C430.841 113.909 431.443 114.834 432.328 115.45C433.222 116.067 434.391 116.375 435.833 116.375C437.473 116.375 438.776 116.027 439.74 115.331C440.715 114.625 441.202 113.78 441.202 112.795C441.202 112 440.923 111.334 440.367 110.797C439.81 110.25 438.955 109.842 437.801 109.574L433.983 108.679C431.885 108.182 430.344 107.411 429.36 106.367C428.385 105.313 427.898 103.996 427.898 102.415C427.898 101.122 428.261 99.9787 428.987 98.9844C429.722 97.9901 430.722 97.2095 431.985 96.6428C433.257 96.076 434.699 95.7926 436.31 95.7926C438.577 95.7926 440.357 96.2898 441.649 97.2841C442.952 98.2784 443.877 99.5909 444.423 101.222ZM460.103 96.0909V99.0739H448.23V96.0909H460.103ZM451.691 90.6023H455.211V112.438C455.211 113.432 455.355 114.178 455.643 114.675C455.941 115.162 456.319 115.49 456.777 115.659C457.244 115.818 457.736 115.898 458.253 115.898C458.641 115.898 458.959 115.878 459.208 115.838C459.456 115.788 459.655 115.749 459.804 115.719L460.52 118.881C460.282 118.97 459.949 119.06 459.521 119.149C459.093 119.249 458.551 119.298 457.895 119.298C456.901 119.298 455.926 119.085 454.972 118.657C454.027 118.229 453.242 117.578 452.615 116.703C451.999 115.828 451.691 114.724 451.691 113.392V90.6023ZM103.185 159.091V162.074H91.3125V159.091H103.185ZM94.7727 153.602H98.2926V175.438C98.2926 176.432 98.4368 177.178 98.7251 177.675C99.0234 178.162 99.4013 178.49 99.8587 178.659C100.326 178.818 100.818 178.898 101.335 178.898C101.723 178.898 102.041 178.878 102.29 178.838C102.538 178.788 102.737 178.749 102.886 178.719L103.602 181.881C103.364 181.97 103.031 182.06 102.603 182.149C102.175 182.249 101.634 182.298 100.977 182.298C99.983 182.298 99.0085 182.085 98.054 181.657C97.1094 181.229 96.3239 180.578 95.6974 179.703C95.081 178.828 94.7727 177.724 94.7727 176.392V153.602ZM112.491 168.219V182H108.972V151.455H112.491V162.67H112.79C113.327 161.487 114.132 160.548 115.206 159.852C116.29 159.146 117.732 158.793 119.531 158.793C121.092 158.793 122.46 159.106 123.633 159.732C124.806 160.349 125.716 161.298 126.362 162.581C127.018 163.854 127.347 165.474 127.347 167.443V182H123.827V167.682C123.827 165.862 123.354 164.455 122.41 163.461C121.475 162.457 120.178 161.955 118.517 161.955C117.364 161.955 116.33 162.198 115.415 162.685C114.51 163.173 113.794 163.884 113.267 164.818C112.75 165.753 112.491 166.886 112.491 168.219ZM143.391 182.477C141.184 182.477 139.28 181.99 137.679 181.016C136.088 180.031 134.86 178.659 133.995 176.899C133.14 175.129 132.712 173.071 132.712 170.724C132.712 168.378 133.14 166.31 133.995 164.52C134.86 162.72 136.063 161.318 137.604 160.314C139.155 159.3 140.965 158.793 143.033 158.793C144.226 158.793 145.405 158.991 146.568 159.389C147.731 159.787 148.79 160.433 149.745 161.328C150.699 162.213 151.46 163.386 152.027 164.848C152.594 166.31 152.877 168.109 152.877 170.247V171.739H135.218V168.696H149.297C149.297 167.403 149.039 166.25 148.522 165.236C148.015 164.222 147.289 163.421 146.344 162.835C145.41 162.248 144.306 161.955 143.033 161.955C141.631 161.955 140.418 162.303 139.394 162.999C138.38 163.685 137.599 164.58 137.052 165.683C136.506 166.787 136.232 167.97 136.232 169.233V171.261C136.232 172.991 136.53 174.458 137.127 175.661C137.733 176.854 138.574 177.764 139.648 178.391C140.721 179.007 141.969 179.315 143.391 179.315C144.316 179.315 145.151 179.186 145.897 178.928C146.653 178.659 147.304 178.261 147.851 177.734C148.398 177.197 148.82 176.531 149.118 175.736L152.519 176.69C152.161 177.844 151.559 178.858 150.714 179.733C149.869 180.598 148.825 181.274 147.582 181.761C146.339 182.239 144.942 182.477 143.391 182.477ZM158.231 182V159.091H161.632V162.551H161.871C162.288 161.418 163.044 160.498 164.138 159.792C165.231 159.086 166.464 158.733 167.836 158.733C168.095 158.733 168.418 158.738 168.806 158.748C169.194 158.758 169.487 158.773 169.686 158.793V162.372C169.567 162.342 169.293 162.298 168.866 162.238C168.448 162.168 168.006 162.134 167.538 162.134C166.425 162.134 165.43 162.367 164.555 162.835C163.69 163.292 163.004 163.928 162.497 164.744C162 165.549 161.751 166.469 161.751 167.503V182H158.231ZM180.6 182.537C179.148 182.537 177.831 182.263 176.647 181.717C175.464 181.16 174.525 180.359 173.828 179.315C173.132 178.261 172.784 176.989 172.784 175.497C172.784 174.185 173.043 173.121 173.56 172.305C174.077 171.48 174.768 170.834 175.633 170.366C176.498 169.899 177.453 169.551 178.497 169.322C179.551 169.084 180.61 168.895 181.674 168.756C183.066 168.577 184.194 168.442 185.059 168.353C185.934 168.254 186.571 168.089 186.968 167.861C187.376 167.632 187.58 167.234 187.58 166.668V166.548C187.58 165.077 187.177 163.933 186.372 163.118C185.576 162.303 184.368 161.895 182.748 161.895C181.067 161.895 179.75 162.263 178.795 162.999C177.841 163.734 177.169 164.52 176.782 165.355L173.441 164.162C174.037 162.77 174.833 161.686 175.827 160.911C176.831 160.125 177.925 159.578 179.108 159.27C180.301 158.952 181.475 158.793 182.628 158.793C183.364 158.793 184.209 158.882 185.164 159.061C186.128 159.23 187.058 159.583 187.953 160.12C188.858 160.657 189.608 161.467 190.205 162.551C190.801 163.635 191.1 165.087 191.1 166.906V182H187.58V178.898H187.401C187.162 179.395 186.765 179.927 186.208 180.494C185.651 181.06 184.91 181.543 183.985 181.94C183.061 182.338 181.932 182.537 180.6 182.537ZM181.137 179.375C182.529 179.375 183.702 179.102 184.657 178.555C185.621 178.008 186.347 177.302 186.834 176.437C187.331 175.572 187.58 174.662 187.58 173.707V170.486C187.431 170.665 187.103 170.829 186.596 170.978C186.098 171.117 185.522 171.241 184.865 171.351C184.219 171.45 183.588 171.54 182.971 171.619C182.365 171.689 181.873 171.749 181.495 171.798C180.58 171.918 179.725 172.112 178.929 172.38C178.144 172.638 177.507 173.031 177.02 173.558C176.543 174.075 176.304 174.781 176.304 175.676C176.304 176.899 176.757 177.824 177.662 178.45C178.576 179.067 179.735 179.375 181.137 179.375ZM197.524 190.591V159.091H200.925V162.73H201.343C201.601 162.332 201.959 161.825 202.416 161.209C202.884 160.582 203.55 160.026 204.415 159.538C205.29 159.041 206.473 158.793 207.965 158.793C209.894 158.793 211.594 159.275 213.066 160.239C214.537 161.204 215.686 162.571 216.511 164.341C217.336 166.111 217.749 168.199 217.749 170.605C217.749 173.031 217.336 175.134 216.511 176.914C215.686 178.684 214.542 180.056 213.08 181.031C211.619 181.995 209.933 182.477 208.024 182.477C206.553 182.477 205.374 182.234 204.49 181.746C203.605 181.249 202.923 180.687 202.446 180.061C201.969 179.425 201.601 178.898 201.343 178.48H201.044V190.591H197.524ZM200.985 170.545C200.985 172.276 201.238 173.802 201.745 175.124C202.252 176.437 202.993 177.466 203.968 178.212C204.942 178.947 206.135 179.315 207.547 179.315C209.019 179.315 210.247 178.928 211.231 178.152C212.225 177.366 212.971 176.312 213.468 174.99C213.975 173.658 214.229 172.176 214.229 170.545C214.229 168.935 213.98 167.483 213.483 166.19C212.996 164.888 212.255 163.859 211.261 163.103C210.276 162.337 209.039 161.955 207.547 161.955C206.115 161.955 204.912 162.317 203.938 163.043C202.963 163.759 202.227 164.763 201.73 166.056C201.233 167.339 200.985 168.835 200.985 170.545ZM224.565 190.591C223.968 190.591 223.436 190.541 222.969 190.442C222.502 190.352 222.178 190.263 221.999 190.173L222.894 187.071C223.749 187.29 224.505 187.369 225.161 187.31C225.818 187.25 226.399 186.957 226.906 186.43C227.423 185.913 227.896 185.072 228.323 183.909L228.98 182.119L220.508 159.091H224.326L230.65 177.347H230.889L237.213 159.091H241.031L231.306 185.341C230.869 186.524 230.327 187.504 229.681 188.279C229.034 189.065 228.284 189.646 227.428 190.024C226.583 190.402 225.629 190.591 224.565 190.591ZM273.716 164.222L270.555 165.116C270.356 164.589 270.062 164.077 269.675 163.58C269.297 163.073 268.78 162.656 268.123 162.327C267.467 161.999 266.627 161.835 265.603 161.835C264.201 161.835 263.032 162.158 262.098 162.805C261.173 163.441 260.711 164.251 260.711 165.236C260.711 166.111 261.029 166.802 261.665 167.309C262.302 167.816 263.296 168.239 264.648 168.577L268.049 169.412C270.097 169.909 271.623 170.67 272.628 171.694C273.632 172.708 274.134 174.016 274.134 175.616C274.134 176.929 273.756 178.102 273.001 179.136C272.255 180.17 271.211 180.986 269.868 181.582C268.526 182.179 266.965 182.477 265.185 182.477C262.849 182.477 260.915 181.97 259.383 180.956C257.852 179.942 256.883 178.46 256.475 176.511L259.816 175.676C260.134 176.909 260.736 177.834 261.621 178.45C262.515 179.067 263.684 179.375 265.126 179.375C266.766 179.375 268.069 179.027 269.033 178.331C270.008 177.625 270.495 176.78 270.495 175.795C270.495 175 270.216 174.334 269.66 173.797C269.103 173.25 268.248 172.842 267.094 172.574L263.276 171.679C261.178 171.182 259.637 170.411 258.653 169.367C257.678 168.313 257.191 166.996 257.191 165.415C257.191 164.122 257.554 162.979 258.28 161.984C259.015 160.99 260.015 160.21 261.278 159.643C262.55 159.076 263.992 158.793 265.603 158.793C267.87 158.793 269.65 159.29 270.942 160.284C272.245 161.278 273.17 162.591 273.716 164.222ZM289.038 182.477C286.83 182.477 284.926 181.99 283.325 181.016C281.734 180.031 280.506 178.659 279.641 176.899C278.786 175.129 278.359 173.071 278.359 170.724C278.359 168.378 278.786 166.31 279.641 164.52C280.506 162.72 281.71 161.318 283.251 160.314C284.802 159.3 286.612 158.793 288.68 158.793C289.873 158.793 291.051 158.991 292.214 159.389C293.378 159.787 294.437 160.433 295.391 161.328C296.346 162.213 297.107 163.386 297.673 164.848C298.24 166.31 298.523 168.109 298.523 170.247V171.739H280.864V168.696H294.944C294.944 167.403 294.685 166.25 294.168 165.236C293.661 164.222 292.935 163.421 291.991 162.835C291.056 162.248 289.952 161.955 288.68 161.955C287.278 161.955 286.065 162.303 285.04 162.999C284.026 163.685 283.246 164.58 282.699 165.683C282.152 166.787 281.879 167.97 281.879 169.233V171.261C281.879 172.991 282.177 174.458 282.773 175.661C283.38 176.854 284.22 177.764 285.294 178.391C286.368 179.007 287.616 179.315 289.038 179.315C289.962 179.315 290.798 179.186 291.543 178.928C292.299 178.659 292.95 178.261 293.497 177.734C294.044 177.197 294.467 176.531 294.765 175.736L298.165 176.69C297.808 177.844 297.206 178.858 296.361 179.733C295.516 180.598 294.472 181.274 293.229 181.761C291.986 182.239 290.589 182.477 289.038 182.477ZM303.878 182V159.091H307.278V162.551H307.517C307.935 161.418 308.69 160.498 309.784 159.792C310.878 159.086 312.111 158.733 313.483 158.733C313.741 158.733 314.065 158.738 314.452 158.748C314.84 158.758 315.134 158.773 315.332 158.793V162.372C315.213 162.342 314.94 162.298 314.512 162.238C314.094 162.168 313.652 162.134 313.185 162.134C312.071 162.134 311.077 162.367 310.202 162.835C309.337 163.292 308.651 163.928 308.143 164.744C307.646 165.549 307.398 166.469 307.398 167.503V182H303.878ZM338.935 159.091L330.463 182H326.884L318.412 159.091H322.23L328.554 177.347H328.793L335.117 159.091H338.935ZM343.581 182V159.091H347.101V182H343.581ZM345.371 155.273C344.685 155.273 344.093 155.039 343.596 154.572C343.109 154.104 342.865 153.543 342.865 152.886C342.865 152.23 343.109 151.668 343.596 151.201C344.093 150.734 344.685 150.5 345.371 150.5C346.057 150.5 346.643 150.734 347.131 151.201C347.628 151.668 347.876 152.23 347.876 152.886C347.876 153.543 347.628 154.104 347.131 154.572C346.643 155.039 346.057 155.273 345.371 155.273ZM362.855 182.477C360.707 182.477 358.857 181.97 357.306 180.956C355.755 179.942 354.562 178.545 353.727 176.765C352.892 174.985 352.474 172.952 352.474 170.665C352.474 168.338 352.901 166.285 353.757 164.505C354.622 162.715 355.825 161.318 357.366 160.314C358.917 159.3 360.727 158.793 362.795 158.793C364.406 158.793 365.857 159.091 367.15 159.688C368.443 160.284 369.502 161.119 370.327 162.193C371.152 163.267 371.664 164.52 371.863 165.952H368.343C368.075 164.908 367.478 163.983 366.553 163.178C365.639 162.362 364.406 161.955 362.855 161.955C361.482 161.955 360.279 162.312 359.245 163.028C358.221 163.734 357.421 164.734 356.844 166.026C356.277 167.309 355.994 168.815 355.994 170.545C355.994 172.315 356.272 173.857 356.829 175.169C357.396 176.482 358.191 177.501 359.215 178.227C360.249 178.952 361.463 179.315 362.855 179.315C363.769 179.315 364.6 179.156 365.345 178.838C366.091 178.52 366.722 178.062 367.24 177.466C367.757 176.869 368.124 176.153 368.343 175.318H371.863C371.664 176.67 371.172 177.888 370.387 178.972C369.611 180.046 368.582 180.901 367.299 181.538C366.026 182.164 364.545 182.477 362.855 182.477ZM386.614 182.477C384.406 182.477 382.502 181.99 380.901 181.016C379.311 180.031 378.083 178.659 377.218 176.899C376.362 175.129 375.935 173.071 375.935 170.724C375.935 168.378 376.362 166.31 377.218 164.52C378.083 162.72 379.286 161.318 380.827 160.314C382.378 159.3 384.188 158.793 386.256 158.793C387.449 158.793 388.627 158.991 389.791 159.389C390.954 159.787 392.013 160.433 392.968 161.328C393.922 162.213 394.683 163.386 395.249 164.848C395.816 166.31 396.1 168.109 396.1 170.247V171.739H378.441V168.696H392.52C392.52 167.403 392.262 166.25 391.744 165.236C391.237 164.222 390.512 163.421 389.567 162.835C388.632 162.248 387.529 161.955 386.256 161.955C384.854 161.955 383.641 162.303 382.617 162.999C381.602 163.685 380.822 164.58 380.275 165.683C379.728 166.787 379.455 167.97 379.455 169.233V171.261C379.455 172.991 379.753 174.458 380.35 175.661C380.956 176.854 381.796 177.764 382.87 178.391C383.944 179.007 385.192 179.315 386.614 179.315C387.539 179.315 388.374 179.186 389.119 178.928C389.875 178.659 390.526 178.261 391.073 177.734C391.62 177.197 392.043 176.531 392.341 175.736L395.742 176.69C395.384 177.844 394.782 178.858 393.937 179.733C393.092 180.598 392.048 181.274 390.805 181.761C389.562 182.239 388.165 182.477 386.614 182.477ZM404.019 182.239C403.284 182.239 402.652 181.975 402.125 181.448C401.598 180.921 401.335 180.29 401.335 179.554C401.335 178.818 401.598 178.187 402.125 177.66C402.652 177.133 403.284 176.869 404.019 176.869C404.755 176.869 405.387 177.133 405.914 177.66C406.441 178.187 406.704 178.818 406.704 179.554C406.704 180.041 406.58 180.489 406.331 180.896C406.093 181.304 405.769 181.632 405.362 181.881C404.964 182.119 404.517 182.239 404.019 182.239Z" fill="#6A6A6A"/>
<path d="M103.901 214.455V245H100.202V218.332H100.023L92.5653 223.284V219.526L100.202 214.455H103.901ZM122.648 245.418C120.401 245.418 118.487 244.806 116.906 243.583C115.325 242.35 114.117 240.565 113.282 238.229C112.447 235.882 112.029 233.048 112.029 229.727C112.029 226.426 112.447 223.607 113.282 221.271C114.127 218.924 115.34 217.134 116.921 215.901C118.512 214.658 120.421 214.037 122.648 214.037C124.876 214.037 126.78 214.658 128.361 215.901C129.952 217.134 131.165 218.924 132 221.271C132.845 223.607 133.268 226.426 133.268 229.727C133.268 233.048 132.85 235.882 132.015 238.229C131.18 240.565 129.972 242.35 128.391 243.583C126.81 244.806 124.896 245.418 122.648 245.418ZM122.648 242.136C124.876 242.136 126.606 241.062 127.839 238.915C129.072 236.767 129.688 233.705 129.688 229.727C129.688 227.082 129.405 224.83 128.838 222.971C128.281 221.112 127.476 219.695 126.422 218.72C125.378 217.746 124.12 217.259 122.648 217.259C120.441 217.259 118.716 218.347 117.473 220.525C116.23 222.692 115.609 225.76 115.609 229.727C115.609 232.372 115.887 234.619 116.444 236.469C117.001 238.318 117.801 239.725 118.845 240.69C119.899 241.654 121.167 242.136 122.648 242.136ZM148.898 245.418C146.651 245.418 144.737 244.806 143.156 243.583C141.575 242.35 140.367 240.565 139.532 238.229C138.697 235.882 138.279 233.048 138.279 229.727C138.279 226.426 138.697 223.607 139.532 221.271C140.377 218.924 141.59 217.134 143.171 215.901C144.762 214.658 146.671 214.037 148.898 214.037C151.126 214.037 153.03 214.658 154.611 215.901C156.202 217.134 157.415 218.924 158.25 221.271C159.095 223.607 159.518 226.426 159.518 229.727C159.518 233.048 159.1 235.882 158.265 238.229C157.43 240.565 156.222 242.35 154.641 243.583C153.06 244.806 151.146 245.418 148.898 245.418ZM148.898 242.136C151.126 242.136 152.856 241.062 154.089 238.915C155.322 236.767 155.938 233.705 155.938 229.727C155.938 227.082 155.655 224.83 155.088 222.971C154.531 221.112 153.726 219.695 152.672 218.72C151.628 217.746 150.37 217.259 148.898 217.259C146.691 217.259 144.966 218.347 143.723 220.525C142.48 222.692 141.859 225.76 141.859 229.727C141.859 232.372 142.137 234.619 142.694 236.469C143.251 238.318 144.051 239.725 145.095 240.69C146.149 241.654 147.417 242.136 148.898 242.136ZM180.756 239.273V237.662C180.756 236.548 180.985 235.529 181.442 234.604C181.91 233.67 182.586 232.924 183.471 232.367C184.366 231.8 185.45 231.517 186.722 231.517C188.015 231.517 189.099 231.8 189.974 232.367C190.849 232.924 191.51 233.67 191.957 234.604C192.405 235.529 192.629 236.548 192.629 237.662V239.273C192.629 240.386 192.4 241.411 191.942 242.345C191.495 243.27 190.829 244.016 189.944 244.582C189.069 245.139 187.995 245.418 186.722 245.418C185.43 245.418 184.341 245.139 183.456 244.582C182.571 244.016 181.9 243.27 181.442 242.345C180.985 241.411 180.756 240.386 180.756 239.273ZM183.799 237.662V239.273C183.799 240.197 184.018 241.028 184.455 241.763C184.893 242.489 185.648 242.852 186.722 242.852C187.766 242.852 188.502 242.489 188.93 241.763C189.367 241.028 189.586 240.197 189.586 239.273V237.662C189.586 236.737 189.377 235.912 188.96 235.186C188.542 234.45 187.796 234.082 186.722 234.082C185.678 234.082 184.928 234.45 184.47 235.186C184.023 235.912 183.799 236.737 183.799 237.662ZM165.543 221.793V220.182C165.543 219.068 165.772 218.049 166.229 217.124C166.697 216.19 167.373 215.444 168.258 214.887C169.153 214.32 170.237 214.037 171.509 214.037C172.802 214.037 173.886 214.32 174.761 214.887C175.636 215.444 176.297 216.19 176.744 217.124C177.192 218.049 177.415 219.068 177.415 220.182V221.793C177.415 222.906 177.187 223.93 176.729 224.865C176.282 225.79 175.616 226.536 174.731 227.102C173.856 227.659 172.782 227.938 171.509 227.938C170.217 227.938 169.128 227.659 168.243 227.102C167.358 226.536 166.687 225.79 166.229 224.865C165.772 223.93 165.543 222.906 165.543 221.793ZM168.586 220.182V221.793C168.586 222.717 168.805 223.548 169.242 224.283C169.68 225.009 170.435 225.372 171.509 225.372C172.553 225.372 173.289 225.009 173.717 224.283C174.154 223.548 174.373 222.717 174.373 221.793V220.182C174.373 219.257 174.164 218.432 173.746 217.706C173.329 216.97 172.583 216.602 171.509 216.602C170.465 216.602 169.714 216.97 169.257 217.706C168.81 218.432 168.586 219.257 168.586 220.182ZM166.677 245L187.677 214.455H191.077L170.077 245H166.677ZM220.489 245.477C218.421 245.477 216.607 244.985 215.045 244.001C213.494 243.016 212.281 241.639 211.406 239.869C210.541 238.099 210.109 236.031 210.109 233.665C210.109 231.278 210.541 229.195 211.406 227.415C212.281 225.636 213.494 224.254 215.045 223.269C216.607 222.285 218.421 221.793 220.489 221.793C222.558 221.793 224.367 222.285 225.918 223.269C227.479 224.254 228.692 225.636 229.558 227.415C230.433 229.195 230.87 231.278 230.87 233.665C230.87 236.031 230.433 238.099 229.558 239.869C228.692 241.639 227.479 243.016 225.918 244.001C224.367 244.985 222.558 245.477 220.489 245.477ZM220.489 242.315C222.06 242.315 223.353 241.913 224.367 241.107C225.381 240.302 226.132 239.243 226.619 237.93C227.107 236.618 227.35 235.196 227.35 233.665C227.35 232.134 227.107 230.707 226.619 229.384C226.132 228.062 225.381 226.993 224.367 226.178C223.353 225.362 222.06 224.955 220.489 224.955C218.918 224.955 217.626 225.362 216.612 226.178C215.597 226.993 214.847 228.062 214.359 229.384C213.872 230.707 213.629 232.134 213.629 233.665C213.629 235.196 213.872 236.618 214.359 237.93C214.847 239.243 215.597 240.302 216.612 241.107C217.626 241.913 218.918 242.315 220.489 242.315ZM239.763 231.219V245H236.243V222.091H239.644V225.67H239.942C240.479 224.507 241.294 223.572 242.388 222.866C243.482 222.151 244.894 221.793 246.624 221.793C248.175 221.793 249.532 222.111 250.695 222.747C251.859 223.374 252.764 224.328 253.41 225.611C254.056 226.884 254.379 228.494 254.379 230.443V245H250.86V230.682C250.86 228.882 250.392 227.48 249.458 226.476C248.523 225.462 247.24 224.955 245.61 224.955C244.486 224.955 243.482 225.198 242.597 225.685C241.722 226.173 241.031 226.884 240.524 227.818C240.017 228.753 239.763 229.886 239.763 231.219ZM264.331 214.455V245H260.811V214.455H264.331ZM270.778 245V222.091H274.298V245H270.778ZM272.568 218.273C271.882 218.273 271.29 218.039 270.793 217.572C270.306 217.104 270.062 216.543 270.062 215.886C270.062 215.23 270.306 214.668 270.793 214.201C271.29 213.734 271.882 213.5 272.568 213.5C273.254 213.5 273.841 213.734 274.328 214.201C274.825 214.668 275.074 215.23 275.074 215.886C275.074 216.543 274.825 217.104 274.328 217.572C273.841 218.039 273.254 218.273 272.568 218.273ZM284.265 231.219V245H280.745V222.091H284.146V225.67H284.444C284.981 224.507 285.796 223.572 286.89 222.866C287.984 222.151 289.396 221.793 291.126 221.793C292.677 221.793 294.034 222.111 295.197 222.747C296.361 223.374 297.266 224.328 297.912 225.611C298.558 226.884 298.881 228.494 298.881 230.443V245H295.362V230.682C295.362 228.882 294.894 227.48 293.96 226.476C293.025 225.462 291.742 224.955 290.112 224.955C288.988 224.955 287.984 225.198 287.099 225.685C286.224 226.173 285.533 226.884 285.026 227.818C284.518 228.753 284.265 229.886 284.265 231.219ZM314.919 245.477C312.711 245.477 310.807 244.99 309.206 244.016C307.615 243.031 306.387 241.659 305.522 239.899C304.667 238.129 304.24 236.071 304.24 233.724C304.24 231.378 304.667 229.31 305.522 227.52C306.387 225.72 307.59 224.318 309.132 223.314C310.683 222.3 312.492 221.793 314.561 221.793C315.754 221.793 316.932 221.991 318.095 222.389C319.259 222.787 320.318 223.433 321.272 224.328C322.227 225.213 322.987 226.386 323.554 227.848C324.121 229.31 324.404 231.109 324.404 233.247V234.739H306.745V231.696H320.825C320.825 230.403 320.566 229.25 320.049 228.236C319.542 227.222 318.816 226.421 317.872 225.835C316.937 225.248 315.833 224.955 314.561 224.955C313.159 224.955 311.945 225.303 310.921 225.999C309.907 226.685 309.127 227.58 308.58 228.683C308.033 229.787 307.759 230.97 307.759 232.233V234.261C307.759 235.991 308.058 237.458 308.654 238.661C309.261 239.854 310.101 240.764 311.175 241.391C312.249 242.007 313.497 242.315 314.919 242.315C315.843 242.315 316.678 242.186 317.424 241.928C318.18 241.659 318.831 241.261 319.378 240.734C319.925 240.197 320.347 239.531 320.646 238.736L324.046 239.69C323.688 240.844 323.087 241.858 322.242 242.733C321.396 243.598 320.352 244.274 319.11 244.761C317.867 245.239 316.47 245.477 314.919 245.477ZM332.324 245.239C331.588 245.239 330.957 244.975 330.43 244.448C329.903 243.921 329.639 243.29 329.639 242.554C329.639 241.818 329.903 241.187 330.43 240.66C330.957 240.133 331.588 239.869 332.324 239.869C333.06 239.869 333.691 240.133 334.218 240.66C334.745 241.187 335.009 241.818 335.009 242.554C335.009 243.041 334.884 243.489 334.636 243.896C334.397 244.304 334.074 244.632 333.666 244.881C333.269 245.119 332.821 245.239 332.324 245.239Z" fill="#65688E"/>
</svg>
